<svg id="Layer_1" data-name="Layer 1" xmlns="http://www.w3.org/2000/svg" viewBox="0 0 96 96"><defs><style>.cls-1{fill:#f6b756;}.cls-2{fill:#fac77d;}.cls-3{fill:#90d1d7;}.cls-4{fill:#abd9e6;}.cls-5{fill:#c3e1f5;}.cls-6{fill:#85bd79;}.cls-7{fill:#9fc98a;}.cls-8{fill:#39426a;}</style></defs><title>globe, global, geography, education, decor, decoration</title><path class="cls-1" d="M72,61a41,41,0,0,1-58,0l4.24-4.24a35,35,0,1,0,49.5-49.5L72,3a41,41,0,0,1,0,58Z"/><path class="cls-2" d="M84,30.5a41,41,0,0,1-68.42,29l2.7-2.7A35,35,0,0,0,78,30.5,34.83,34.83,0,0,0,69.2,5.8L72,3A40.83,40.83,0,0,1,84,30.5Z"/><path class="cls-1" d="M61,89H35a5.86,5.86,0,0,1,.81-3,5.75,5.75,0,0,1,.95-1.24A5.94,5.94,0,0,1,41,83H55a6,6,0,0,1,5.19,3A5.86,5.86,0,0,1,61,89Z"/><path class="cls-1" d="M67,95H29a5.86,5.86,0,0,1,.81-3,5.75,5.75,0,0,1,1-1.24A5.94,5.94,0,0,1,35,89H61a6,6,0,0,1,5.19,3A5.86,5.86,0,0,1,67,95Z"/><path class="cls-2" d="M60.19,86H35.81a5.75,5.75,0,0,1,.95-1.24A5.94,5.94,0,0,1,41,83H55A6,6,0,0,1,60.19,86Z"/><path class="cls-2" d="M66.19,92H29.81a5.75,5.75,0,0,1,1-1.24A5.94,5.94,0,0,1,35,89H61A6,6,0,0,1,66.19,92Z"/><polygon class="cls-1" points="52 72 52 83 44 83 44 72.99 47 72.62 52 72"/><path class="cls-2" d="M52,72V82h0a5,5,0,0,1-5-5V72.62Z"/><path class="cls-3" d="M73,32a30,30,0,0,1-60,0c0-.84,0-1.68.11-2.5a30,30,0,0,1,59.78,0C73,30.32,73,31.16,73,32Z"/><ellipse class="cls-4" cx="43" cy="29.5" rx="29.89" ry="27.5"/><circle class="cls-5" cx="42.5" cy="27" r="25"/><path class="cls-6" d="M67.08,14.11A15.32,15.32,0,0,1,62,14c-5-1-5,4-7,7s-4,7-9,7-4,5-6,4-2-3,0-6,4-6,2-9-9-1-10-2c-.58-.58-3.54-4.55-5.91-7.77a30,30,0,0,1,41,6.88Z"/><path class="cls-7" d="M44.5,15.34c-2.44-3.67-7.56-3-10.8-3t-.12-.12a3.78,3.78,0,0,1,1.73-6.08A27,27,0,0,1,55.41,8a3,3,0,0,1,.73,4.7c-2,2-2.68,5.17-3.64,6.61C50.55,22.26,49,24,47,23,45.21,22.11,46.88,18.9,44.5,15.34Z"/><path class="cls-6" d="M36,33c-1.31-.53-10-3.4-10,8,0,5,2,10,7,10s4,1,6,3,4,11,7,5-2-10,2-12,5-10,1-11S41,35,36,33Z"/><path class="cls-7" d="M40.36,50.93C38.74,48.66,37.09,48,33,48c-3.81,0-4-5.83-4-7,0-5.71,2.35-5.71,3.35-5.71a7.42,7.42,0,0,1,2.54.5A44.33,44.33,0,0,0,45.2,38.3a3.4,3.4,0,0,1,2.3,5.27,2.56,2.56,0,0,1-.84.75c-4.06,2-3.35,5.8-3,7.82C44,53.52,41.69,52.81,40.36,50.93Z"/><path class="cls-6" d="M73,32a29.73,29.73,0,0,1-5.25,16.93C63.05,46.82,57.75,39.27,57,34c-1-7,5-1,11-1a5.77,5.77,0,0,0,4.93-3C73,30.68,73,31.34,73,32Z"/><path class="cls-7" d="M64.67,42.62a25.58,25.58,0,0,1-3-4.31A2,2,0,0,1,64,35.4a16.23,16.23,0,0,0,3.43.6,2,2,0,0,1,1.84,2.42A27.22,27.22,0,0,1,68.07,42,2,2,0,0,1,64.67,42.62Z"/><path class="cls-6" d="M22,22c1.9-5.69,11,5,6,6s-6-1-4-2S21,25,22,22Z"/><path class="cls-8" d="M25.59,29.27A13.76,13.76,0,0,0,28.2,29a2.61,2.61,0,0,0,2.28-2.75c-.07-2.73-3.34-6.45-6.05-6.85a3,3,0,0,0-3.38,2.3c-.72,2.17.77,3.32,1.77,3.9a1.92,1.92,0,0,0-.69,2.09C22.48,28.72,23.73,29.27,25.59,29.27ZM23,22.32c.36-1.09.9-1,1.19-1,1.7.25,4.3,3.2,4.34,4.92,0,.39-.09.62-.68.74a6.63,6.63,0,0,1-3.63,0,2.5,2.5,0,0,1,.28-.17,1.6,1.6,0,0,0,1-1.31c0-.81-.68-1.19-1.29-1.52C23,23.38,22.71,23,23,22.32Z"/><path class="cls-8" d="M72.7,61.7A42,42,0,0,0,73.39,3l1.32-1.32A1,1,0,0,0,73.29.29l-2,2L67,6.54,64.2,9.39A31.18,31.18,0,0,0,43,1c-.78,0-1.57,0-2.34.09-1,.07-1.91.2-2.85.36a30.51,30.51,0,0,0-12.29,5h0A31,31,0,0,0,20.4,53.19L17.54,56,13.3,60.28l-2,2a1,1,0,0,0,0,1.42,1,1,0,0,0,1.42,0L14,62.39A41.68,41.68,0,0,0,43,74v8H41a7,7,0,0,0-6.93,6.07A7,7,0,0,0,28,95a1,1,0,0,0,1,1H67a1,1,0,0,0,1-1,7,7,0,0,0-6.07-6.93A7,7,0,0,0,55,82H53V72.8A41.67,41.67,0,0,0,72.7,61.7ZM43,63A31,31,0,0,0,74,32c0-.74,0-1.41-.07-2h0a31,31,0,0,0-6.05-16.44,29.34,29.34,0,0,0-2.27-2.71l2.12-2.12A34,34,0,0,1,19.68,56.73l2.13-2.13A30.91,30.91,0,0,0,43,63Zm1.57-26.83c1.45.24,2.82.46,4.19.8s1.66,1.77,1.75,2.6c.25,2.32-.87,5.49-3,6.54-2.7,1.35-2.27,3.64-1.89,5.66a9.76,9.76,0,0,1-.55,6.78C44.4,60,44,60.05,44,60.05c-.53,0-1.71-2.37-2.21-3.38a14,14,0,0,0-2-3.38,9.12,9.12,0,0,1-1-1.2C37.67,50.6,36.86,50,33,50c-4.42,0-6-4.65-6-9,0-3.48.83-5.81,2.48-6.92a5,5,0,0,1,2.87-.79,9.49,9.49,0,0,1,3.28.64h0A39.3,39.3,0,0,0,44.57,36.17ZM72,32.6c0,.31,0,.62,0,.93s0,.57,0,.85c0,.45-.1.9-.15,1.35,0,.24-.06.49-.1.73-.09.59-.2,1.17-.33,1.75,0,.1,0,.2,0,.3-.16.68-.34,1.34-.54,2l-.21.59c-.15.46-.3.92-.48,1.37-.1.24-.21.48-.31.73s-.33.79-.52,1.18-.25.51-.38.76-.38.73-.58,1.09l-.46.77c-.13.2-.26.41-.4.61-4.13-2.37-8.72-9-9.4-13.76-.27-1.88.09-2.19.1-2.2a.54.54,0,0,1,.29-.07,13.12,13.12,0,0,1,3,.88A19.67,19.67,0,0,0,68,34,6.27,6.27,0,0,0,72,32.6ZM44.65,3.05l.55.05c.36,0,.73,0,1.09.09l.65.09c.32.05.65.09,1,.15l.68.13.92.19.69.18c.3.08.6.15.89.24l.69.21.86.29.68.25.84.34.67.29.81.38.65.32.8.43.63.36.78.48.59.38c.27.17.53.36.79.54l.54.4.8.62.48.39c.29.25.58.5.86.76l.36.32c.4.38.79.77,1.16,1.16l.09.1q.49.53,1,1.08A14,14,0,0,1,62.2,13c-4.44-.89-5.74,2.29-6.79,4.85a15.42,15.42,0,0,1-1.24,2.58l-.64,1C51.77,24.16,49.94,27,46,27a5.37,5.37,0,0,0-5.31,3.48c-.1.19-.22.43-.32.59a1.46,1.46,0,0,1-.82-.91c-.15-.55,0-1.62,1.28-3.61,2.05-3.07,4.37-6.55,2-10.1-1.26-1.9-3.86-2.2-6.22-2.2-.57,0-1.13,0-1.66,0a11.63,11.63,0,0,1-2.3,0c-.4-.45-1.94-2.43-5.12-6.74l.52-.33c.27-.16.55-.33.83-.48s.68-.37,1-.55l.85-.42,1.07-.46c.29-.12.57-.25.87-.36s.73-.26,1.1-.39l.88-.29,1.16-.31.87-.22c.41-.09.83-.16,1.24-.23s.55-.11.83-.15c.46-.07.93-.11,1.4-.16l.7-.07C41.58,3,42.29,3,43,3,43.55,3,44.1,3,44.65,3.05ZM25.87,8.62c2.27,3.07,4.83,6.5,5.42,7.09s1.89.63,3.73.57c2.19-.07,5.19-.16,6.15,1.27,1.52,2.29.26,4.51-2,7.9-1.42,2.12-1.92,3.83-1.55,5.22a3.42,3.42,0,0,0,1.93,2.22,2,2,0,0,0,.94.25c1.09,0,1.67-1.14,2-1.75C43.07,30.21,43.69,29,46,29c5,0,7.35-3.6,9.22-6.5l.61-.95a15.28,15.28,0,0,0,1.43-2.93c1.14-2.76,1.85-4.18,4.55-3.64a16.17,16.17,0,0,0,4.78.18,28.8,28.8,0,0,1,5.31,14.6A4.62,4.62,0,0,1,68,32a17.83,17.83,0,0,1-5.88-1.41c-2.27-.83-4.06-1.48-5.29-.48s-1,2.63-.82,4c.76,5.31,5.64,12.38,10.25,15.13A28.92,28.92,0,0,1,46.05,60.83a8.5,8.5,0,0,0,.84-1.38,11.69,11.69,0,0,0,.73-8.05c-.4-2.15-.47-2.86.83-3.51,3-1.48,4.38-5.5,4-8.54-.25-2.29-1.44-3.87-3.26-4.32-1.45-.36-2.86-.59-4.35-.83a37.46,37.46,0,0,1-8.52-2.13c-.79-.31-4.87-1.78-8,.35C26.13,33.93,25,36.82,25,41c0,6.68,3.14,11,8,11,3.21,0,3.45.34,4.09,1.24a10.11,10.11,0,0,0,1.2,1.47A12.77,12.77,0,0,1,40,57.56,16.33,16.33,0,0,0,42,61,29,29,0,0,1,25.87,8.62ZM15.43,61l2.83-2.83A36,36,0,0,0,79,32,35.74,35.74,0,0,0,69.15,7.26L72,4.43a40,40,0,0,1-.7,55.85,40,40,0,0,1-55.85.7ZM65.9,94H30.1A5,5,0,0,1,35,90H61A5,5,0,0,1,65.9,94Zm-6-6H36.1A5,5,0,0,1,41,84H55A5,5,0,0,1,59.9,88ZM51,82H45V74a41.3,41.3,0,0,0,6-.71Z"/></svg>